<svg width="1003" height="107" viewBox="0 0 1003 107" fill="none" xmlns="http://www.w3.org/2000/svg">
<path d="M960.696 4.55359C965.668 4.52143 970.769 4.63633 975.274 4.75378C979.771 4.87102 983.687 4.99139 986.269 4.96863L1001.51 5.00671L1001.52 18.4442L947.201 18.6141L946.702 18.6161L946.7 19.1141C946.662 27.0253 946.965 39.5746 946.473 47.287C936.738 45.5323 932.107 37.8481 931.198 29.4344C930.735 25.1487 931.246 20.6991 932.538 16.8055C933.832 12.9068 935.897 9.60397 938.509 7.56921C939.202 7.02936 940.294 6.55883 941.746 6.16492C943.189 5.77349 944.944 5.46762 946.927 5.23328C950.892 4.76465 955.722 4.58577 960.696 4.55359Z" fill="#FBF5FF" stroke="#FBF5FF" stroke-width="1.00437"/>
<path d="M947.442 48.3387C961.535 47.2095 982.866 47.8757 997.594 47.9803L997.559 61.5175C991.782 61.5457 981.824 61.7491 972.067 61.8114C962.275 61.8739 952.668 61.7896 947.493 61.2518L947.442 48.3387Z" fill="#FBF5FF" stroke="#FBF5FF" stroke-width="1.00437"/>
<path d="M946.527 62.292C947.278 74.0458 946.668 93.3022 946.646 105.66L932.037 105.666C932.009 101.6 931.658 97.0935 931.445 92.6094C931.223 87.9207 931.151 83.2341 931.739 78.9766C932.327 74.7191 933.57 70.9333 935.941 68.0146C938.221 65.2093 941.581 63.1605 946.527 62.292Z" fill="#FBF5FF" stroke="#FBF5FF" stroke-width="1.00437"/>
<path d="M743.091 7.69939C744.579 1.75236 799.157 -9.44807 803.495 15.6398L818.501 15.592L818.674 83.3644C818.609 92.5902 817.207 103.836 806.092 105.032C789.691 106.797 772.555 105.876 756.003 105.691L755.996 91.0822C747.232 89.2204 746.269 87.7831 741.092 80.8361C740.364 63.2623 739.297 22.8792 743.091 7.69939ZM803.495 15.6398C787.864 15.7844 772.232 15.8391 756.6 15.8019C756.362 40.7606 756.289 65.7212 756.381 90.6808L803.195 90.5129L803.13 41.6476C803.125 35.3271 802.786 21.2383 803.495 15.6398Z" fill="#FBF5FF"/>
<path d="M838.166 7.69926C839.655 1.75221 894.233 -9.44816 898.571 15.6397L913.577 15.5918L913.748 83.3643C913.684 92.59 912.282 103.836 901.167 105.032C884.767 106.797 867.631 105.876 851.079 105.69L851.072 91.0821C842.307 89.2203 841.345 87.7829 836.167 80.836C835.44 63.2622 834.372 22.879 838.166 7.69926ZM898.571 15.6397C882.939 15.7843 867.308 15.839 851.675 15.8018C851.438 40.7604 851.365 65.7211 851.456 90.6807L898.271 90.5127L898.205 41.6475C898.2 35.327 897.862 21.2382 898.571 15.6397Z" fill="#FBF5FF"/>
<path d="M597.813 2.16307C611.363 1.77644 627.838 1.00046 629.028 18.334C633.332 81.0604 617.736 67.7396 566.711 68.0127L566.598 104.859L550.999 104.849C550.936 101.888 550.885 98.56 550.827 95.6347C550.43 75.7803 549.699 76.0385 565.757 66.0928C568.77 47.7316 560.23 55.555 553.57 46.748C549.15 40.9011 549.792 22.3082 551.62 15.1523C553.463 7.93451 554.807 6.65594 561.011 2.72166C572.615 1.68732 585.882 2.5035 597.813 2.16307ZM613.149 16.9043C597.898 16.9193 582.013 16.7006 566.817 17.0039C566.6 29.0574 566.533 41.1134 566.614 53.168C581.855 53.1509 597.997 53.4119 613.162 53.0654L613.149 16.9043Z" fill="#FBF5FF"/>
<path d="M474.184 3.09619C487.135 1.94433 519.271 2.88155 533.988 2.93115L533.935 16.3882L479.792 16.5796L479.294 16.5815L479.292 17.0796L479.158 45.4253L479.156 45.9331L479.663 45.9302C496.522 45.8314 513.381 45.8252 530.24 45.9116L530.147 59.48L479.794 59.5005H479.295L479.292 60.0005L479.2 77.8608V77.8667L479.278 89.4653L479.281 89.9634H479.779L533.983 90.0425L533.917 104.147C516.435 104.293 499.461 104.651 481.666 104.026C476.781 103.854 473.15 102.546 470.494 100.49C467.838 98.4328 466.116 95.5957 465.104 92.2974C463.073 85.6781 463.924 77.2697 465.773 69.8901C466.517 66.9209 468.408 64.9239 470.838 63.3198C473.295 61.6977 476.212 60.5285 479.019 59.147L479.271 59.0229L479.297 58.7427C479.73 54.0473 479.847 51.0396 479.604 49.0366C479.481 48.029 479.264 47.2457 478.931 46.6177C478.593 45.981 478.149 45.5291 477.612 45.1675C477.086 44.8139 476.471 44.5471 475.805 44.2778C475.127 44.0041 474.385 43.7227 473.538 43.3306C471.861 42.5532 469.788 41.3427 467.29 38.9731C466.068 37.8132 465.172 35.9142 464.587 33.5503C464.005 31.1971 463.743 28.4395 463.743 25.6265C463.744 19.9822 464.799 14.2271 466.332 11.1636C467.432 8.96607 468.341 7.64863 469.493 6.53174C470.641 5.42017 472.045 4.48978 474.184 3.09619Z" fill="#FBF5FF" stroke="#FBF5FF" stroke-width="1.00437"/>
<path d="M378.435 2.70371C385.691 2.11423 433.429 0.858388 438.428 4.64317C450.764 13.9844 453.23 48.5483 430.896 53.942L430.919 67.2994C450.603 71.3715 446.671 87.9933 446.305 104.039L430.587 104.109L430.589 89.4127L430.572 67.9762L384.1 67.9918L384.001 104.85H368.448L368.276 47.3951C368.257 36.6019 367.723 24.2479 369.197 13.6314C369.985 7.96163 373.975 5.69729 378.435 2.70371ZM430.571 16.8941C415.258 16.9243 399.476 16.7485 384.206 17.0016C384.01 29.044 383.953 41.0899 384.034 53.1334L430.571 53.1031V16.8941Z" fill="#FBF5FF"/>
<path d="M655.57 2.70398C662.826 2.1145 710.564 0.858576 715.563 4.64344C727.899 13.9848 730.365 48.5486 708.031 53.9423L708.054 67.2997C727.738 71.3718 723.806 87.9936 723.44 104.039L707.723 104.109L707.724 89.412L707.707 67.9764L661.235 67.9911L661.136 104.849H645.583L645.411 47.3944C645.392 36.6011 644.858 24.2473 646.332 13.6307C647.12 7.96092 651.11 5.69756 655.57 2.70398ZM707.706 16.8934C692.393 16.9236 676.611 16.7478 661.341 17.0009C661.145 29.0433 661.088 41.0892 661.169 53.1327L707.706 53.1024V16.8934Z" fill="#FBF5FF"/>
<path d="M226.686 17.3364C226.476 31.0959 226.627 45.2634 226.607 59.0444L226.587 104.329L212.241 104.356L212.102 17.395H212.405L226.629 17.3374L226.686 17.3364ZM191.143 2.5415C194.51 2.47141 197.517 2.60704 200.172 3.29639C202.815 3.98263 205.11 5.21792 207.06 7.35986C208.979 9.46866 210.587 12.4834 211.847 16.7837H211.6L180.539 16.7651L180.559 2.97803C182.388 2.92201 184.154 2.83694 185.85 2.75342C187.697 2.66239 189.461 2.57652 191.143 2.5415ZM248.209 2.62354C249.895 2.64333 251.614 2.71219 253.346 2.78564C254.91 2.85202 256.486 2.92035 258.048 2.96045L258.039 16.7661L227.189 16.7573L227.153 16.7563C227.94 12.5251 229.424 9.56045 231.385 7.48193C233.37 5.37691 235.879 4.14196 238.745 3.44287C241.618 2.74211 244.833 2.5839 248.209 2.62354Z" fill="#FBF5FF" stroke="#FBF5FF" stroke-width="1.00437"/>
<path d="M163.517 2.57275L163.528 16.4106V16.4126C163.563 23.851 164.396 42.5186 164.258 60.5581C164.189 69.5632 163.877 78.374 163.104 85.4888C162.717 89.0466 162.215 92.1677 161.575 94.6714C160.931 97.1922 160.163 99.0217 159.279 100.054C157.84 101.734 155.655 102.788 153.233 103.455C150.817 104.12 148.22 104.386 146.015 104.533C140.944 104.872 128.925 105.228 117.427 104.788C111.678 104.567 106.073 104.149 101.537 103.432C99.2693 103.074 97.2812 102.642 95.6819 102.129C94.0695 101.612 92.9067 101.028 92.2395 100.395C91.0127 99.2324 90.1199 97.3645 89.4778 95.3052C88.8395 93.2584 88.4677 91.0855 88.2434 89.3735V89.3726L88.1252 88.4409C86.9723 78.7907 87.7258 68.4122 87.7551 58.6187L87.9641 2.52783L102.422 2.53662L102.451 89.7456L102.452 90.2456L102.951 90.2476C118.082 90.3169 133.203 90.2892 148.333 90.1606L148.83 90.1558V89.6587L148.89 2.52588L163.517 2.57275Z" fill="#FBF5FF" stroke="#FBF5FF" stroke-width="1.00437"/>
<path d="M351.645 2.57275L351.656 16.4106V16.4126C351.691 23.851 352.524 42.5186 352.386 60.5581C352.317 69.5632 352.005 78.374 351.232 85.4888C350.845 89.0466 350.343 92.1677 349.703 94.6714C349.059 97.1922 348.291 99.0217 347.406 100.054C345.968 101.734 343.783 102.788 341.361 103.455C338.945 104.12 336.348 104.386 334.143 104.533C329.072 104.872 317.052 105.228 305.555 104.788C299.806 104.567 294.2 104.149 289.665 103.432C287.397 103.074 285.409 102.642 283.81 102.129C282.197 101.612 281.035 101.028 280.367 100.395C279.141 99.2324 278.248 97.3645 277.606 95.3052C276.967 93.2584 276.596 91.0855 276.371 89.3735V89.3726L276.253 88.4409C275.1 78.7907 275.854 68.4122 275.883 58.6187L276.092 2.52783L290.55 2.53662L290.579 89.7456L290.58 90.2456L291.079 90.2476C306.21 90.3169 321.331 90.2892 336.461 90.1606L336.958 90.1558V89.6587L337.018 2.52588L351.645 2.57275Z" fill="#FBF5FF" stroke="#FBF5FF" stroke-width="1.00437"/>
<path d="M30.168 4.55359C35.1392 4.52143 40.2407 4.63633 44.7461 4.75378C49.2432 4.87102 53.1589 4.99139 55.7402 4.96863L70.9795 5.00671L70.9912 18.4442L16.6729 18.6141L16.1738 18.6161L16.1719 19.1141C16.1335 27.0253 16.4369 39.5746 15.9443 47.287C6.20966 45.5323 1.57878 37.8481 0.669922 29.4344C0.207 25.1487 0.717689 20.6991 2.00977 16.8055C3.30363 12.9068 5.36821 9.60397 7.98047 7.56921C8.67352 7.02936 9.76607 6.55883 11.2178 6.16492C12.6604 5.77349 14.4158 5.46762 16.3984 5.23328C20.3633 4.76465 25.1941 4.58577 30.168 4.55359Z" fill="#FBF5FF" stroke="#FBF5FF" stroke-width="1.00437"/>
<path d="M16.915 48.3387C31.0081 47.2095 52.3393 47.8757 67.0674 47.9803L67.0322 61.5175C61.2556 61.5457 51.2971 61.7491 41.54 61.8114C31.7484 61.8739 22.1406 61.7896 16.9658 61.2518L16.915 48.3387Z" fill="#FBF5FF" stroke="#FBF5FF" stroke-width="1.00437"/>
<path d="M15.9995 62.292C16.7507 74.0458 16.1401 93.3022 16.1187 105.66L1.50928 105.666C1.48113 101.6 1.1302 97.0935 0.91748 92.6094C0.695062 87.9207 0.623336 83.2341 1.21143 78.9766C1.79954 74.7191 3.04196 70.9333 5.41357 68.0146C7.69326 65.2093 11.053 63.1605 15.9995 62.292Z" fill="#FBF5FF" stroke="#FBF5FF" stroke-width="1.00437"/>
</svg>
